G04 #@! TF.FileFunction,Legend,Bot*
%FSLAX46Y46*%
G04 Gerber Fmt 4.6, Leading zero omitted, Abs format (unit mm)*
G04 Created by KiCad (PCBNEW 4.0.7-e2-6376~61~ubuntu18.04.1) date Wed Sep  5 15:10:53 2018*
%MOMM*%
%LPD*%
G01*
G04 APERTURE LIST*
%ADD10C,0.100000*%
%ADD11C,0.150000*%
G04 APERTURE END LIST*
D10*
D11*
X133350000Y-51000000D02*
G75*
G02X142750000Y-60400000I0J-9400000D01*
G01*
X123950000Y-60400000D02*
G75*
G02X133350000Y-51000000I9400000J0D01*
G01*
X142750000Y-80400000D02*
G75*
G02X133350000Y-89800000I-9400000J0D01*
G01*
X133350000Y-89800000D02*
G75*
G02X123950000Y-80400000I0J9400000D01*
G01*
X142750000Y-80400000D02*
X142750000Y-60400000D01*
X123950000Y-80400000D02*
X123950000Y-60400000D01*
X142450000Y-52400000D02*
G75*
G03X142450000Y-52400000I-1100000J0D01*
G01*
X126450000Y-52400000D02*
G75*
G03X126450000Y-52400000I-1100000J0D01*
G01*
X142450000Y-88400000D02*
G75*
G03X142450000Y-88400000I-1100000J0D01*
G01*
X126350000Y-88600000D02*
G75*
G03X126350000Y-88600000I-1000000J0D01*
G01*
X143350000Y-90400000D02*
X123350000Y-90400000D01*
X123350000Y-50400000D02*
X143350000Y-50400000D01*
X123350000Y-50400000D02*
X123350000Y-90400000D01*
X143350000Y-50400000D02*
X143350000Y-90400000D01*
X148754762Y-70052381D02*
X148754762Y-69052381D01*
X148183333Y-70052381D02*
X148611905Y-69480952D01*
X148183333Y-69052381D02*
X148754762Y-69623810D01*
X147802381Y-69147619D02*
X147754762Y-69100000D01*
X147659524Y-69052381D01*
X147421428Y-69052381D01*
X147326190Y-69100000D01*
X147278571Y-69147619D01*
X147230952Y-69242857D01*
X147230952Y-69338095D01*
X147278571Y-69480952D01*
X147850000Y-70052381D01*
X147230952Y-70052381D01*
X146611905Y-69052381D02*
X146516666Y-69052381D01*
X146421428Y-69100000D01*
X146373809Y-69147619D01*
X146326190Y-69242857D01*
X146278571Y-69433333D01*
X146278571Y-69671429D01*
X146326190Y-69861905D01*
X146373809Y-69957143D01*
X146421428Y-70004762D01*
X146516666Y-70052381D01*
X146611905Y-70052381D01*
X146707143Y-70004762D01*
X146754762Y-69957143D01*
X146802381Y-69861905D01*
X146850000Y-69671429D01*
X146850000Y-69433333D01*
X146802381Y-69242857D01*
X146754762Y-69147619D01*
X146707143Y-69100000D01*
X146611905Y-69052381D01*
X145850000Y-69957143D02*
X145802381Y-70004762D01*
X145850000Y-70052381D01*
X145897619Y-70004762D01*
X145850000Y-69957143D01*
X145850000Y-70052381D01*
X144945238Y-69385714D02*
X144945238Y-70052381D01*
X145183334Y-69004762D02*
X145421429Y-69719048D01*
X144802381Y-69719048D01*
X144230953Y-69052381D02*
X144135714Y-69052381D01*
X144040476Y-69100000D01*
X143992857Y-69147619D01*
X143945238Y-69242857D01*
X143897619Y-69433333D01*
X143897619Y-69671429D01*
X143945238Y-69861905D01*
X143992857Y-69957143D01*
X144040476Y-70004762D01*
X144135714Y-70052381D01*
X144230953Y-70052381D01*
X144326191Y-70004762D01*
X144373810Y-69957143D01*
X144421429Y-69861905D01*
X144469048Y-69671429D01*
X144469048Y-69433333D01*
X144421429Y-69242857D01*
X144373810Y-69147619D01*
X144326191Y-69100000D01*
X144230953Y-69052381D01*
M02*
