G04 #@! TF.FileFunction,Legend,Top*
%FSLAX46Y46*%
G04 Gerber Fmt 4.6, Leading zero omitted, Abs format (unit mm)*
G04 Created by KiCad (PCBNEW 4.0.7-e2-6376~61~ubuntu18.04.1) date Wed Sep  5 15:10:53 2018*
%MOMM*%
%LPD*%
G01*
G04 APERTURE LIST*
%ADD10C,0.100000*%
%ADD11C,0.300000*%
%ADD12C,0.010000*%
%ADD13C,0.150000*%
G04 APERTURE END LIST*
D10*
D11*
X129958036Y-97103571D02*
X130145536Y-95603571D01*
X130815179Y-97103571D01*
X131002679Y-95603571D01*
X132002679Y-95603571D02*
X132288393Y-95603571D01*
X132422322Y-95675000D01*
X132547322Y-95817857D01*
X132583036Y-96103571D01*
X132520536Y-96603571D01*
X132413393Y-96889286D01*
X132252679Y-97032143D01*
X132100893Y-97103571D01*
X131815179Y-97103571D01*
X131681250Y-97032143D01*
X131556250Y-96889286D01*
X131520536Y-96603571D01*
X131583036Y-96103571D01*
X131690179Y-95817857D01*
X131850893Y-95675000D01*
X132002679Y-95603571D01*
X133100894Y-97103571D02*
X133288394Y-95603571D01*
X133958037Y-97103571D02*
X133422322Y-96246429D01*
X134145537Y-95603571D02*
X133181251Y-96460714D01*
X135074108Y-95603571D02*
X135359822Y-95603571D01*
X135493751Y-95675000D01*
X135618751Y-95817857D01*
X135654465Y-96103571D01*
X135591965Y-96603571D01*
X135484822Y-96889286D01*
X135324108Y-97032143D01*
X135172322Y-97103571D01*
X134886608Y-97103571D01*
X134752679Y-97032143D01*
X134627679Y-96889286D01*
X134591965Y-96603571D01*
X134654465Y-96103571D01*
X134761608Y-95817857D01*
X134922322Y-95675000D01*
X135074108Y-95603571D01*
X136386609Y-97103571D02*
X136252679Y-97032143D01*
X136199108Y-96889286D01*
X136359823Y-95603571D01*
X136958037Y-97103571D02*
X137083037Y-96103571D01*
X137145537Y-95603571D02*
X137065179Y-95675000D01*
X137127679Y-95746429D01*
X137208036Y-95675000D01*
X137145537Y-95603571D01*
X137127679Y-95746429D01*
X137797323Y-96103571D02*
X137672323Y-97103571D01*
X137779465Y-96246429D02*
X137859822Y-96175000D01*
X138011609Y-96103571D01*
X138225894Y-96103571D01*
X138359822Y-96175000D01*
X138413394Y-96317857D01*
X138315180Y-97103571D01*
X139243752Y-97103571D02*
X139109822Y-97032143D01*
X139047323Y-96960714D01*
X138993751Y-96817857D01*
X139047322Y-96389286D01*
X139136608Y-96246429D01*
X139216965Y-96175000D01*
X139368752Y-96103571D01*
X139583037Y-96103571D01*
X139716965Y-96175000D01*
X139779465Y-96246429D01*
X139833037Y-96389286D01*
X139779466Y-96817857D01*
X139690180Y-96960714D01*
X139609822Y-97032143D01*
X139458037Y-97103571D01*
X139243752Y-97103571D01*
X125565179Y-99653571D02*
X125752679Y-98153571D01*
X125681250Y-98725000D02*
X125833036Y-98653571D01*
X126118750Y-98653571D01*
X126252678Y-98725000D01*
X126315178Y-98796429D01*
X126368750Y-98939286D01*
X126315179Y-99367857D01*
X126225893Y-99510714D01*
X126145535Y-99582143D01*
X125993750Y-99653571D01*
X125708036Y-99653571D01*
X125574107Y-99582143D01*
X126904465Y-98653571D02*
X127136608Y-99653571D01*
X127618750Y-98653571D02*
X127136608Y-99653571D01*
X126949107Y-100010714D01*
X126868750Y-100082143D01*
X126716965Y-100153571D01*
X129208036Y-99653571D02*
X129395536Y-98153571D01*
X130065179Y-99653571D01*
X130252679Y-98153571D01*
X130779465Y-99653571D02*
X130904465Y-98653571D01*
X130966965Y-98153571D02*
X130886607Y-98225000D01*
X130949107Y-98296429D01*
X131029464Y-98225000D01*
X130966965Y-98153571D01*
X130949107Y-98296429D01*
X131493751Y-99653571D02*
X131681251Y-98153571D01*
X131708036Y-99082143D02*
X132065179Y-99653571D01*
X132190179Y-98653571D02*
X131547322Y-99225000D01*
X132922323Y-99653571D02*
X132788393Y-99582143D01*
X132725894Y-99510714D01*
X132672322Y-99367857D01*
X132725893Y-98939286D01*
X132815179Y-98796429D01*
X132895536Y-98725000D01*
X133047323Y-98653571D01*
X133261608Y-98653571D01*
X133395536Y-98725000D01*
X133458036Y-98796429D01*
X133511608Y-98939286D01*
X133458037Y-99367857D01*
X133368751Y-99510714D01*
X133288393Y-99582143D01*
X133136608Y-99653571D01*
X132922323Y-99653571D01*
X134279466Y-99653571D02*
X134145536Y-99582143D01*
X134091965Y-99439286D01*
X134252680Y-98153571D01*
X135493751Y-99653571D02*
X135591965Y-98867857D01*
X135538393Y-98725000D01*
X135404465Y-98653571D01*
X135118751Y-98653571D01*
X134966965Y-98725000D01*
X135502679Y-99582143D02*
X135350894Y-99653571D01*
X134993751Y-99653571D01*
X134859822Y-99582143D01*
X134806250Y-99439286D01*
X134824107Y-99296429D01*
X134913394Y-99153571D01*
X135065179Y-99082143D01*
X135422322Y-99082143D01*
X135574108Y-99010714D01*
X136208037Y-99653571D02*
X136333037Y-98653571D01*
X136395537Y-98153571D02*
X136315179Y-98225000D01*
X136377679Y-98296429D01*
X136458036Y-98225000D01*
X136395537Y-98153571D01*
X136377679Y-98296429D01*
X138922323Y-99653571D02*
X138511608Y-98939286D01*
X138065180Y-99653571D02*
X138252680Y-98153571D01*
X138824108Y-98153571D01*
X138958037Y-98225000D01*
X139020536Y-98296429D01*
X139074108Y-98439286D01*
X139047323Y-98653571D01*
X138958036Y-98796429D01*
X138877680Y-98867857D01*
X138725893Y-98939286D01*
X138154465Y-98939286D01*
X140208037Y-99653571D02*
X140306251Y-98867857D01*
X140252679Y-98725000D01*
X140118751Y-98653571D01*
X139833037Y-98653571D01*
X139681251Y-98725000D01*
X140216965Y-99582143D02*
X140065180Y-99653571D01*
X139708037Y-99653571D01*
X139574108Y-99582143D01*
X139520536Y-99439286D01*
X139538393Y-99296429D01*
X139627680Y-99153571D01*
X139779465Y-99082143D01*
X140136608Y-99082143D01*
X140288394Y-99010714D01*
X141565180Y-99653571D02*
X141752680Y-98153571D01*
X141574108Y-99582143D02*
X141422323Y-99653571D01*
X141136609Y-99653571D01*
X141002679Y-99582143D01*
X140940180Y-99510714D01*
X140886608Y-99367857D01*
X140940179Y-98939286D01*
X141029465Y-98796429D01*
X141109822Y-98725000D01*
X141261609Y-98653571D01*
X141547323Y-98653571D01*
X141681251Y-98725000D01*
X142279466Y-99653571D02*
X142466966Y-98153571D01*
X142493751Y-99082143D02*
X142850894Y-99653571D01*
X142975894Y-98653571D02*
X142333037Y-99225000D01*
X144074108Y-99582143D02*
X143922323Y-99653571D01*
X143636609Y-99653571D01*
X143502680Y-99582143D01*
X143449108Y-99439286D01*
X143520537Y-98867857D01*
X143609823Y-98725000D01*
X143761609Y-98653571D01*
X144047323Y-98653571D01*
X144181251Y-98725000D01*
X144234823Y-98867857D01*
X144216966Y-99010714D01*
X143484823Y-99153571D01*
D12*
G36*
X108018140Y-79313148D02*
X108500926Y-79773323D01*
X109032166Y-80462873D01*
X109501485Y-81248432D01*
X109660564Y-81591666D01*
X110026653Y-82217596D01*
X110423814Y-82337213D01*
X110480173Y-82318907D01*
X111580797Y-82042514D01*
X113040955Y-81872170D01*
X114665193Y-81811033D01*
X116258059Y-81862258D01*
X117624098Y-82029004D01*
X118275017Y-82193006D01*
X118713446Y-82332963D01*
X119028706Y-82336738D01*
X119321805Y-82122806D01*
X119693753Y-81609641D01*
X120245559Y-80715719D01*
X120380623Y-80493551D01*
X120980801Y-79693325D01*
X121494368Y-79372534D01*
X121875876Y-79552955D01*
X121967698Y-79733040D01*
X122073643Y-80190367D01*
X122212493Y-81027316D01*
X122354017Y-82061374D01*
X122556952Y-83290353D01*
X122838691Y-84502799D01*
X123084137Y-85283333D01*
X123410553Y-86572603D01*
X123583922Y-88295931D01*
X123606183Y-89026160D01*
X123640000Y-91498987D01*
X124719553Y-90366716D01*
X125540180Y-89641575D01*
X126233094Y-89281602D01*
X126719394Y-89309698D01*
X126918993Y-89728333D01*
X126821143Y-91117049D01*
X126413178Y-92707416D01*
X125770826Y-94289114D01*
X124969817Y-95651820D01*
X124633802Y-96075062D01*
X123855879Y-97106909D01*
X123520774Y-97956800D01*
X123498888Y-98219856D01*
X123412040Y-99185384D01*
X123176038Y-100516815D01*
X122827695Y-102076632D01*
X122403823Y-103727319D01*
X121941234Y-105331359D01*
X121476743Y-106751235D01*
X121047160Y-107849432D01*
X120785747Y-108355000D01*
X120174822Y-108885911D01*
X119423138Y-108934876D01*
X118674345Y-108507505D01*
X118453172Y-108263928D01*
X118060576Y-107636787D01*
X117575528Y-106684102D01*
X117101602Y-105609640D01*
X117092133Y-105586295D01*
X116302222Y-103634733D01*
X114653022Y-103631255D01*
X113705398Y-103655554D01*
X113177401Y-103764056D01*
X112925522Y-104002546D01*
X112852712Y-104205628D01*
X112572422Y-105008118D01*
X112127811Y-106003095D01*
X111597877Y-107042669D01*
X111061619Y-107978951D01*
X110598035Y-108664052D01*
X110326223Y-108935363D01*
X109650476Y-109061452D01*
X109223654Y-108983333D01*
X108723811Y-108524223D01*
X108201992Y-107531867D01*
X107995298Y-107003411D01*
X107637897Y-105932639D01*
X107237288Y-104587943D01*
X106826121Y-103097438D01*
X106437048Y-101589238D01*
X106102719Y-100191458D01*
X105855785Y-99032213D01*
X105728897Y-98239617D01*
X105718888Y-98071278D01*
X105544661Y-97465840D01*
X105097774Y-96667088D01*
X104719241Y-96152835D01*
X103750379Y-94643635D01*
X103006750Y-92847731D01*
X102591866Y-91029584D01*
X102552585Y-90617348D01*
X102587496Y-90030377D01*
X102941493Y-90030377D01*
X102984060Y-90648633D01*
X103204625Y-91539347D01*
X103562267Y-92588206D01*
X104016066Y-93680899D01*
X104525101Y-94703115D01*
X105048452Y-95540541D01*
X105274213Y-95822696D01*
X106050901Y-96973702D01*
X106390259Y-98207220D01*
X106609506Y-99486448D01*
X106957737Y-101107621D01*
X107386468Y-102876865D01*
X107847211Y-104600304D01*
X108291484Y-106084064D01*
X108541784Y-106810350D01*
X109024350Y-107870168D01*
X109494176Y-108372569D01*
X109988669Y-108322346D01*
X110545236Y-107724295D01*
X110918667Y-107115007D01*
X111473483Y-106015183D01*
X111993733Y-104815367D01*
X112141696Y-104423285D01*
X112632245Y-103042111D01*
X114721933Y-103123278D01*
X116811621Y-103204444D01*
X117191629Y-104304606D01*
X117861260Y-106028194D01*
X118515513Y-107301252D01*
X119133849Y-108100487D01*
X119695728Y-108402610D01*
X120180611Y-108184328D01*
X120369324Y-107908048D01*
X120682121Y-107167267D01*
X121071862Y-106016718D01*
X121499639Y-104599058D01*
X121926541Y-103056947D01*
X122313658Y-101533041D01*
X122622079Y-100169999D01*
X122812894Y-99110480D01*
X122845376Y-98830000D01*
X122979334Y-97741149D01*
X123206158Y-96996426D01*
X123611316Y-96375559D01*
X123940466Y-96007778D01*
X124914508Y-94677188D01*
X125699505Y-93022916D01*
X126188388Y-91279737D01*
X126237056Y-90971877D01*
X126305443Y-90270594D01*
X126231257Y-89944141D01*
X125959043Y-90006138D01*
X125433344Y-90470209D01*
X124598704Y-91349976D01*
X124569663Y-91381469D01*
X123921671Y-92042959D01*
X123407917Y-92492701D01*
X123180722Y-92621111D01*
X123081607Y-92357948D01*
X123001557Y-91644517D01*
X122949651Y-90594909D01*
X122934444Y-89527115D01*
X122907702Y-87932796D01*
X122814379Y-86743419D01*
X122634827Y-85801439D01*
X122370000Y-85001111D01*
X122038424Y-83961549D01*
X121833434Y-82937530D01*
X121801701Y-82521219D01*
X121738421Y-81471534D01*
X121576875Y-80714461D01*
X121346702Y-80356737D01*
X121203658Y-80367591D01*
X120941627Y-80691573D01*
X120541665Y-81355149D01*
X120249315Y-81904596D01*
X119550474Y-83283691D01*
X118384754Y-82872401D01*
X117384309Y-82644945D01*
X116047991Y-82507977D01*
X114555223Y-82461723D01*
X113085426Y-82506410D01*
X111818022Y-82642264D01*
X110947720Y-82863030D01*
X110371571Y-83074785D01*
X109965865Y-83073060D01*
X109617971Y-82778444D01*
X109215256Y-82111525D01*
X108837798Y-81375429D01*
X108448116Y-80706473D01*
X108135175Y-80351734D01*
X108027534Y-80339984D01*
X107891091Y-80695203D01*
X107711098Y-81452079D01*
X107524404Y-82453579D01*
X107507850Y-82554555D01*
X107267245Y-83854674D01*
X106972171Y-85194608D01*
X106731739Y-86120949D01*
X106496879Y-87265953D01*
X106337989Y-88718119D01*
X106283333Y-90142615D01*
X106269666Y-91246315D01*
X106233118Y-92097104D01*
X106180364Y-92567495D01*
X106153531Y-92621111D01*
X105910550Y-92430738D01*
X105396565Y-91931008D01*
X104721589Y-91229005D01*
X104703800Y-91210000D01*
X104004374Y-90501018D01*
X103435382Y-89994382D01*
X103119118Y-89798904D01*
X103117845Y-89798889D01*
X102941493Y-90030377D01*
X102587496Y-90030377D01*
X102607081Y-89701112D01*
X102919851Y-89285647D01*
X103487634Y-89371527D01*
X104307167Y-89959327D01*
X104621292Y-90252778D01*
X105718888Y-91324553D01*
X105739860Y-89362276D01*
X105774485Y-87975751D01*
X105865522Y-86925078D01*
X106045993Y-85982150D01*
X106348919Y-84918859D01*
X106412051Y-84718889D01*
X106667582Y-83767413D01*
X106935644Y-82536975D01*
X107139766Y-81403694D01*
X107326630Y-80389808D01*
X107519286Y-79614166D01*
X107679306Y-79228416D01*
X107694186Y-79215715D01*
X108018140Y-79313148D01*
X108018140Y-79313148D01*
G37*
X108018140Y-79313148D02*
X108500926Y-79773323D01*
X109032166Y-80462873D01*
X109501485Y-81248432D01*
X109660564Y-81591666D01*
X110026653Y-82217596D01*
X110423814Y-82337213D01*
X110480173Y-82318907D01*
X111580797Y-82042514D01*
X113040955Y-81872170D01*
X114665193Y-81811033D01*
X116258059Y-81862258D01*
X117624098Y-82029004D01*
X118275017Y-82193006D01*
X118713446Y-82332963D01*
X119028706Y-82336738D01*
X119321805Y-82122806D01*
X119693753Y-81609641D01*
X120245559Y-80715719D01*
X120380623Y-80493551D01*
X120980801Y-79693325D01*
X121494368Y-79372534D01*
X121875876Y-79552955D01*
X121967698Y-79733040D01*
X122073643Y-80190367D01*
X122212493Y-81027316D01*
X122354017Y-82061374D01*
X122556952Y-83290353D01*
X122838691Y-84502799D01*
X123084137Y-85283333D01*
X123410553Y-86572603D01*
X123583922Y-88295931D01*
X123606183Y-89026160D01*
X123640000Y-91498987D01*
X124719553Y-90366716D01*
X125540180Y-89641575D01*
X126233094Y-89281602D01*
X126719394Y-89309698D01*
X126918993Y-89728333D01*
X126821143Y-91117049D01*
X126413178Y-92707416D01*
X125770826Y-94289114D01*
X124969817Y-95651820D01*
X124633802Y-96075062D01*
X123855879Y-97106909D01*
X123520774Y-97956800D01*
X123498888Y-98219856D01*
X123412040Y-99185384D01*
X123176038Y-100516815D01*
X122827695Y-102076632D01*
X122403823Y-103727319D01*
X121941234Y-105331359D01*
X121476743Y-106751235D01*
X121047160Y-107849432D01*
X120785747Y-108355000D01*
X120174822Y-108885911D01*
X119423138Y-108934876D01*
X118674345Y-108507505D01*
X118453172Y-108263928D01*
X118060576Y-107636787D01*
X117575528Y-106684102D01*
X117101602Y-105609640D01*
X117092133Y-105586295D01*
X116302222Y-103634733D01*
X114653022Y-103631255D01*
X113705398Y-103655554D01*
X113177401Y-103764056D01*
X112925522Y-104002546D01*
X112852712Y-104205628D01*
X112572422Y-105008118D01*
X112127811Y-106003095D01*
X111597877Y-107042669D01*
X111061619Y-107978951D01*
X110598035Y-108664052D01*
X110326223Y-108935363D01*
X109650476Y-109061452D01*
X109223654Y-108983333D01*
X108723811Y-108524223D01*
X108201992Y-107531867D01*
X107995298Y-107003411D01*
X107637897Y-105932639D01*
X107237288Y-104587943D01*
X106826121Y-103097438D01*
X106437048Y-101589238D01*
X106102719Y-100191458D01*
X105855785Y-99032213D01*
X105728897Y-98239617D01*
X105718888Y-98071278D01*
X105544661Y-97465840D01*
X105097774Y-96667088D01*
X104719241Y-96152835D01*
X103750379Y-94643635D01*
X103006750Y-92847731D01*
X102591866Y-91029584D01*
X102552585Y-90617348D01*
X102587496Y-90030377D01*
X102941493Y-90030377D01*
X102984060Y-90648633D01*
X103204625Y-91539347D01*
X103562267Y-92588206D01*
X104016066Y-93680899D01*
X104525101Y-94703115D01*
X105048452Y-95540541D01*
X105274213Y-95822696D01*
X106050901Y-96973702D01*
X106390259Y-98207220D01*
X106609506Y-99486448D01*
X106957737Y-101107621D01*
X107386468Y-102876865D01*
X107847211Y-104600304D01*
X108291484Y-106084064D01*
X108541784Y-106810350D01*
X109024350Y-107870168D01*
X109494176Y-108372569D01*
X109988669Y-108322346D01*
X110545236Y-107724295D01*
X110918667Y-107115007D01*
X111473483Y-106015183D01*
X111993733Y-104815367D01*
X112141696Y-104423285D01*
X112632245Y-103042111D01*
X114721933Y-103123278D01*
X116811621Y-103204444D01*
X117191629Y-104304606D01*
X117861260Y-106028194D01*
X118515513Y-107301252D01*
X119133849Y-108100487D01*
X119695728Y-108402610D01*
X120180611Y-108184328D01*
X120369324Y-107908048D01*
X120682121Y-107167267D01*
X121071862Y-106016718D01*
X121499639Y-104599058D01*
X121926541Y-103056947D01*
X122313658Y-101533041D01*
X122622079Y-100169999D01*
X122812894Y-99110480D01*
X122845376Y-98830000D01*
X122979334Y-97741149D01*
X123206158Y-96996426D01*
X123611316Y-96375559D01*
X123940466Y-96007778D01*
X124914508Y-94677188D01*
X125699505Y-93022916D01*
X126188388Y-91279737D01*
X126237056Y-90971877D01*
X126305443Y-90270594D01*
X126231257Y-89944141D01*
X125959043Y-90006138D01*
X125433344Y-90470209D01*
X124598704Y-91349976D01*
X124569663Y-91381469D01*
X123921671Y-92042959D01*
X123407917Y-92492701D01*
X123180722Y-92621111D01*
X123081607Y-92357948D01*
X123001557Y-91644517D01*
X122949651Y-90594909D01*
X122934444Y-89527115D01*
X122907702Y-87932796D01*
X122814379Y-86743419D01*
X122634827Y-85801439D01*
X122370000Y-85001111D01*
X122038424Y-83961549D01*
X121833434Y-82937530D01*
X121801701Y-82521219D01*
X121738421Y-81471534D01*
X121576875Y-80714461D01*
X121346702Y-80356737D01*
X121203658Y-80367591D01*
X120941627Y-80691573D01*
X120541665Y-81355149D01*
X120249315Y-81904596D01*
X119550474Y-83283691D01*
X118384754Y-82872401D01*
X117384309Y-82644945D01*
X116047991Y-82507977D01*
X114555223Y-82461723D01*
X113085426Y-82506410D01*
X111818022Y-82642264D01*
X110947720Y-82863030D01*
X110371571Y-83074785D01*
X109965865Y-83073060D01*
X109617971Y-82778444D01*
X109215256Y-82111525D01*
X108837798Y-81375429D01*
X108448116Y-80706473D01*
X108135175Y-80351734D01*
X108027534Y-80339984D01*
X107891091Y-80695203D01*
X107711098Y-81452079D01*
X107524404Y-82453579D01*
X107507850Y-82554555D01*
X107267245Y-83854674D01*
X106972171Y-85194608D01*
X106731739Y-86120949D01*
X106496879Y-87265953D01*
X106337989Y-88718119D01*
X106283333Y-90142615D01*
X106269666Y-91246315D01*
X106233118Y-92097104D01*
X106180364Y-92567495D01*
X106153531Y-92621111D01*
X105910550Y-92430738D01*
X105396565Y-91931008D01*
X104721589Y-91229005D01*
X104703800Y-91210000D01*
X104004374Y-90501018D01*
X103435382Y-89994382D01*
X103119118Y-89798904D01*
X103117845Y-89798889D01*
X102941493Y-90030377D01*
X102587496Y-90030377D01*
X102607081Y-89701112D01*
X102919851Y-89285647D01*
X103487634Y-89371527D01*
X104307167Y-89959327D01*
X104621292Y-90252778D01*
X105718888Y-91324553D01*
X105739860Y-89362276D01*
X105774485Y-87975751D01*
X105865522Y-86925078D01*
X106045993Y-85982150D01*
X106348919Y-84918859D01*
X106412051Y-84718889D01*
X106667582Y-83767413D01*
X106935644Y-82536975D01*
X107139766Y-81403694D01*
X107326630Y-80389808D01*
X107519286Y-79614166D01*
X107679306Y-79228416D01*
X107694186Y-79215715D01*
X108018140Y-79313148D01*
G36*
X116195099Y-90402925D02*
X116380537Y-90520448D01*
X116906819Y-91134393D01*
X116976477Y-91817977D01*
X116673385Y-92478184D01*
X116081420Y-93021999D01*
X115284458Y-93356407D01*
X114366375Y-93388394D01*
X113903333Y-93267559D01*
X113349637Y-92958932D01*
X112986111Y-92681655D01*
X112541156Y-92043479D01*
X112553195Y-91632170D01*
X113125675Y-91632170D01*
X113432316Y-92225559D01*
X113605313Y-92382847D01*
X114265035Y-92801631D01*
X114913519Y-92863514D01*
X115738974Y-92620656D01*
X116314798Y-92230157D01*
X116437463Y-91750394D01*
X116188575Y-91272722D01*
X115649742Y-90888497D01*
X114902568Y-90689075D01*
X114071992Y-90754534D01*
X113347809Y-91110747D01*
X113125675Y-91632170D01*
X112553195Y-91632170D01*
X112559814Y-91406064D01*
X112944594Y-90831481D01*
X113598004Y-90381804D01*
X114422552Y-90119104D01*
X115320748Y-90105454D01*
X116195099Y-90402925D01*
X116195099Y-90402925D01*
G37*
X116195099Y-90402925D02*
X116380537Y-90520448D01*
X116906819Y-91134393D01*
X116976477Y-91817977D01*
X116673385Y-92478184D01*
X116081420Y-93021999D01*
X115284458Y-93356407D01*
X114366375Y-93388394D01*
X113903333Y-93267559D01*
X113349637Y-92958932D01*
X112986111Y-92681655D01*
X112541156Y-92043479D01*
X112553195Y-91632170D01*
X113125675Y-91632170D01*
X113432316Y-92225559D01*
X113605313Y-92382847D01*
X114265035Y-92801631D01*
X114913519Y-92863514D01*
X115738974Y-92620656D01*
X116314798Y-92230157D01*
X116437463Y-91750394D01*
X116188575Y-91272722D01*
X115649742Y-90888497D01*
X114902568Y-90689075D01*
X114071992Y-90754534D01*
X113347809Y-91110747D01*
X113125675Y-91632170D01*
X112553195Y-91632170D01*
X112559814Y-91406064D01*
X112944594Y-90831481D01*
X113598004Y-90381804D01*
X114422552Y-90119104D01*
X115320748Y-90105454D01*
X116195099Y-90402925D01*
G36*
X111616903Y-85460619D02*
X112480136Y-85970262D01*
X113030565Y-86819188D01*
X113169555Y-87651920D01*
X112924664Y-88686340D01*
X112283605Y-89473544D01*
X111386797Y-89940424D01*
X110374662Y-90013871D01*
X109387777Y-89620885D01*
X108678952Y-89047233D01*
X108347763Y-88503343D01*
X108263210Y-87775860D01*
X108283235Y-87607679D01*
X109149435Y-87607679D01*
X109309685Y-88332366D01*
X109732796Y-88795108D01*
X110629888Y-89195772D01*
X111436726Y-89048521D01*
X111927777Y-88670000D01*
X112346397Y-88111260D01*
X112492222Y-87682222D01*
X112256324Y-87081143D01*
X111689786Y-86512462D01*
X111004338Y-86164881D01*
X110750555Y-86130000D01*
X109930678Y-86347264D01*
X109376702Y-86892901D01*
X109149435Y-87607679D01*
X108283235Y-87607679D01*
X108384406Y-86758027D01*
X108828181Y-86078884D01*
X109407962Y-85696229D01*
X110554850Y-85349520D01*
X111616903Y-85460619D01*
X111616903Y-85460619D01*
G37*
X111616903Y-85460619D02*
X112480136Y-85970262D01*
X113030565Y-86819188D01*
X113169555Y-87651920D01*
X112924664Y-88686340D01*
X112283605Y-89473544D01*
X111386797Y-89940424D01*
X110374662Y-90013871D01*
X109387777Y-89620885D01*
X108678952Y-89047233D01*
X108347763Y-88503343D01*
X108263210Y-87775860D01*
X108283235Y-87607679D01*
X109149435Y-87607679D01*
X109309685Y-88332366D01*
X109732796Y-88795108D01*
X110629888Y-89195772D01*
X111436726Y-89048521D01*
X111927777Y-88670000D01*
X112346397Y-88111260D01*
X112492222Y-87682222D01*
X112256324Y-87081143D01*
X111689786Y-86512462D01*
X111004338Y-86164881D01*
X110750555Y-86130000D01*
X109930678Y-86347264D01*
X109376702Y-86892901D01*
X109149435Y-87607679D01*
X108283235Y-87607679D01*
X108384406Y-86758027D01*
X108828181Y-86078884D01*
X109407962Y-85696229D01*
X110554850Y-85349520D01*
X111616903Y-85460619D01*
G36*
X119751251Y-85488987D02*
X120556213Y-85998912D01*
X121092540Y-86806335D01*
X121241111Y-87649235D01*
X121005692Y-88713359D01*
X120290577Y-89488782D01*
X119626721Y-89822525D01*
X118841525Y-90042692D01*
X118185403Y-89959833D01*
X117531600Y-89653149D01*
X116811579Y-88985416D01*
X116394383Y-88049944D01*
X116384857Y-87668397D01*
X117277414Y-87668397D01*
X117579645Y-88494743D01*
X117757074Y-88718333D01*
X118443339Y-89177301D01*
X119224239Y-89100605D01*
X119767203Y-88795108D01*
X120266593Y-88164883D01*
X120347507Y-87410013D01*
X120064427Y-86707016D01*
X119471834Y-86232408D01*
X118944620Y-86130000D01*
X118023593Y-86347206D01*
X117446627Y-86906278D01*
X117277414Y-87668397D01*
X116384857Y-87668397D01*
X116370091Y-87077027D01*
X116436519Y-86853476D01*
X117020287Y-85958804D01*
X117853714Y-85447473D01*
X118807226Y-85298021D01*
X119751251Y-85488987D01*
X119751251Y-85488987D01*
G37*
X119751251Y-85488987D02*
X120556213Y-85998912D01*
X121092540Y-86806335D01*
X121241111Y-87649235D01*
X121005692Y-88713359D01*
X120290577Y-89488782D01*
X119626721Y-89822525D01*
X118841525Y-90042692D01*
X118185403Y-89959833D01*
X117531600Y-89653149D01*
X116811579Y-88985416D01*
X116394383Y-88049944D01*
X116384857Y-87668397D01*
X117277414Y-87668397D01*
X117579645Y-88494743D01*
X117757074Y-88718333D01*
X118443339Y-89177301D01*
X119224239Y-89100605D01*
X119767203Y-88795108D01*
X120266593Y-88164883D01*
X120347507Y-87410013D01*
X120064427Y-86707016D01*
X119471834Y-86232408D01*
X118944620Y-86130000D01*
X118023593Y-86347206D01*
X117446627Y-86906278D01*
X117277414Y-87668397D01*
X116384857Y-87668397D01*
X116370091Y-87077027D01*
X116436519Y-86853476D01*
X117020287Y-85958804D01*
X117853714Y-85447473D01*
X118807226Y-85298021D01*
X119751251Y-85488987D01*
D13*
M02*
